<svg xmlns="http://www.w3.org/2000/svg" width="37" height="38" fill="none"><path stroke="#5F82FF" stroke-linecap="round" stroke-linejoin="round" stroke-width="4" d="M2 19.25C2 9.723 9.668 2 19.128 2c1.743 0 3.426.262 5.01.75"/><path fill="#5F82FF" fill-rule="evenodd" d="M15.441 22.962a5.187 5.187 0 0 0 7.373 0C24.849 20.912 33.276 6.5 32.532 5.75c-.745-.75-15.055 7.737-17.09 9.788a5.277 5.277 0 0 0 0 7.424Zm3.686-2.212c.823 0 1.49-.672 1.49-1.5s-.667-1.5-1.49-1.5c-.822 0-1.489.672-1.489 1.5s.667 1.5 1.49 1.5Z" clip-rule="evenodd"/><ellipse cx="4.234" cy="28.25" fill="#5F82FF" rx="1.489" ry="1.5"/><ellipse cx="10.191" cy="34.25" fill="#5F82FF" rx="1.489" ry="1.5"/><ellipse cx="19.128" cy="36.5" fill="#5F82FF" rx="1.489" ry="1.5"/><ellipse cx="28.064" cy="34.25" fill="#5F82FF" rx="1.489" ry="1.5"/><ellipse cx="33.277" cy="28.25" fill="#5F82FF" rx="1.489" ry="1.5"/><ellipse cx="35.511" cy="19.25" fill="#5F82FF" rx="1.489" ry="1.5"/></svg>